<!--?xml version="1.0" standalone="no"?-->
              <svg id="sw-js-blob-svg" viewBox="0 0 100 100" xmlns="http://www.w3.org/2000/svg" version="1.1">
                    <defs> 
                        <linearGradient id="sw-gradient" x1="0" x2="1" y1="1" y2="0">
                            <stop id="stop1" stop-color="rgba(248, 117, 55, 1)" offset="0%"></stop>
                            <stop id="stop2" stop-color="rgba(251, 168, 31, 1)" offset="100%"></stop>
                        </linearGradient>
                    </defs>
                <path fill="url(#sw-gradient)" d="M13.4,-22.9C16.3,-21.6,16.9,-15.8,17.8,-11.3C18.8,-6.7,20.2,-3.4,23.5,1.9C26.9,7.2,32.1,14.4,31.9,20.2C31.7,26.1,26,30.5,19.7,33.3C13.5,36,6.7,36.9,0.7,35.7C-5.3,34.5,-10.6,31,-15.7,27.6C-20.7,24.2,-25.5,20.9,-26.4,16.3C-27.2,11.7,-24.2,5.8,-25.9,-1C-27.6,-7.8,-34.2,-15.7,-32.8,-19.3C-31.3,-22.9,-21.9,-22.3,-15.1,-21.3C-8.3,-20.4,-4.2,-19.2,0.6,-20.1C5.3,-21.1,10.5,-24.2,13.4,-22.9Z" width="100%" height="100%" transform="translate(50 50)" stroke-width="0" style="transition: 0.3s;" stroke="url(#sw-gradient)"></path>
              </svg>