<!--?xml version="1.0" standalone="no"?-->
              <svg id="sw-js-blob-svg" viewBox="0 0 100 100" xmlns="http://www.w3.org/2000/svg" version="1.1">
                    <defs> 
                        <linearGradient id="sw-gradient" x1="0" x2="1" y1="1" y2="0">
                            <stop id="stop1" stop-color="rgba(248, 117, 55, 1)" offset="0%"></stop>
                            <stop id="stop2" stop-color="rgba(251, 168, 31, 1)" offset="100%"></stop>
                        </linearGradient>
                    </defs>
                <path fill="url(#sw-gradient)" d="M14.4,-26.8C19.2,-22.1,24,-19.4,27.6,-15.2C31.3,-11.1,33.7,-5.5,34.9,0.7C36.2,7,36.2,13.9,32.4,17.8C28.6,21.6,20.9,22.3,14.9,22.5C8.9,22.6,4.4,22.1,-0.2,22.4C-4.8,22.7,-9.6,23.8,-15.2,23.5C-20.9,23.1,-27.5,21.4,-33,17.2C-38.5,13.1,-43,6.5,-41,1.1C-39,-4.3,-30.6,-8.6,-25.4,-13.1C-20.1,-17.6,-17.9,-22.4,-14.2,-27.7C-10.5,-32.9,-5.2,-38.6,-0.2,-38.2C4.8,-37.8,9.6,-31.4,14.4,-26.8Z" width="100%" height="100%" transform="translate(50 50)" stroke-width="0" style="transition: 0.3s;" stroke="url(#sw-gradient)"></path>
              </svg>