<!--?xml version="1.0" standalone="no"?-->
              <svg id="sw-js-blob-svg" viewBox="0 0 100 100" xmlns="http://www.w3.org/2000/svg" version="1.1">
                    <defs> 
                        <linearGradient id="sw-gradient" x1="0" x2="1" y1="1" y2="0">
                            <stop id="stop1" stop-color="rgba(248, 117, 55, 1)" offset="0%"></stop>
                            <stop id="stop2" stop-color="rgba(251, 168, 31, 1)" offset="100%"></stop>
                        </linearGradient>
                    </defs>
                <path fill="url(#sw-gradient)" d="M12.4,-25.5C15.1,-19.8,15.8,-14.7,19.9,-10.5C23.9,-6.4,31.3,-3.2,34.9,2.1C38.5,7.4,38.5,14.8,33.5,17.3C28.5,19.8,18.6,17.4,12.2,20.3C5.8,23.2,2.9,31.4,-1.9,34.8C-6.8,38.1,-13.6,36.7,-20.6,34.2C-27.7,31.7,-35,28.1,-36.4,22.2C-37.7,16.3,-33,8.2,-32.5,0.3C-31.9,-7.5,-35.3,-14.9,-33.4,-19.7C-31.4,-24.4,-23.9,-26.4,-17.4,-30C-11,-33.5,-5.5,-38.5,-0.3,-37.9C4.8,-37.3,9.6,-31.2,12.4,-25.5Z" width="100%" height="100%" transform="translate(50 50)" stroke-width="0" style="transition: 0.3s;" stroke="url(#sw-gradient)"></path>
              </svg>