<!--?xml version="1.0" standalone="no"?-->
              <svg id="sw-js-blob-svg" viewBox="0 0 100 100" xmlns="http://www.w3.org/2000/svg" version="1.1">
                    <defs> 
                        <linearGradient id="sw-gradient" x1="0" x2="1" y1="1" y2="0">
                            <stop id="stop1" stop-color="rgba(248, 117, 55, 1)" offset="0%"></stop>
                            <stop id="stop2" stop-color="rgba(251, 168, 31, 1)" offset="100%"></stop>
                        </linearGradient>
                    </defs>
                <path fill="url(#sw-gradient)" d="M22,-36.4C28.5,-34.4,33.7,-28.4,36.8,-21.7C40,-14.9,41.2,-7.5,39.6,-1C37.9,5.6,33.4,11.1,29.6,16.8C25.8,22.4,22.7,28.2,17.9,31.4C13.1,34.6,6.5,35.2,0.2,34.9C-6.2,34.6,-12.4,33.5,-19.3,31.4C-26.1,29.4,-33.6,26.5,-36,21.2C-38.5,15.8,-36,7.9,-34.2,1C-32.5,-5.9,-31.5,-11.7,-29.8,-18.5C-28.2,-25.3,-25.9,-33.1,-20.8,-35.9C-15.7,-38.6,-7.9,-36.4,0,-36.4C7.8,-36.3,15.5,-38.3,22,-36.4Z" width="100%" height="100%" transform="translate(50 50)" stroke-width="0" style="transition: 0.3s;" stroke="url(#sw-gradient)"></path>
              </svg>