<!--?xml version="1.0" standalone="no"?-->
              <svg id="sw-js-blob-svg" viewBox="0 0 100 100" xmlns="http://www.w3.org/2000/svg" version="1.1">
                    <defs> 
                        <linearGradient id="sw-gradient" x1="0" x2="1" y1="1" y2="0">
                            <stop id="stop1" stop-color="rgba(248, 117, 55, 1)" offset="0%"></stop>
                            <stop id="stop2" stop-color="rgba(251, 168, 31, 1)" offset="100%"></stop>
                        </linearGradient>
                    </defs>
                <path fill="url(#sw-gradient)" d="M26.6,-34.9C34.4,-31.1,40.3,-23.1,42.6,-14.3C45,-5.4,43.6,4.2,39.7,11.8C35.7,19.4,29,25.1,22,29.3C14.9,33.5,7.5,36.1,0.2,35.9C-7,35.6,-14.1,32.3,-21.7,28.4C-29.4,24.4,-37.7,19.6,-40.5,12.7C-43.4,5.8,-40.9,-3.3,-36.5,-10.3C-32.1,-17.3,-25.9,-22.2,-19.5,-26.4C-13.1,-30.6,-6.5,-34.3,1.5,-36.3C9.5,-38.3,18.9,-38.7,26.6,-34.9Z" width="100%" height="100%" transform="translate(50 50)" stroke-width="0" style="transition: 0.3s;"></path>
              </svg>